<svg xmlns="http://www.w3.org/2000/svg" viewBox="0 0 520 680" role="img" aria-labelledby="title desc">
  <title id="title">Maya QR joke card</title>
  <desc id="desc">A joke payment card styled like a Maya QR screenshot.</desc>
  <rect width="520" height="680" rx="34" fill="#ffffff"/>
  <circle cx="260" cy="44" r="38" fill="#1bb657"/>
  <text x="260" y="58" text-anchor="middle" font-family="Arial, sans-serif" font-size="36" font-weight="900" fill="#ffffff">m</text>
  <text x="260" y="118" text-anchor="middle" font-family="Arial, sans-serif" font-size="31" font-weight="800" fill="#111111">Simone Benedict Celestial</text>
  <text x="260" y="162" text-anchor="middle" font-family="Arial, sans-serif" font-size="26" fill="#555555">@smlclstl</text>
  <text x="260" y="202" text-anchor="middle" font-family="Arial, sans-serif" font-size="25" fill="#555555">+63 *** *** 3801</text>
  <rect x="98" y="244" width="324" height="324" fill="#ffffff"/>
  <g fill="#111111">
    <rect x="106" y="252" width="74" height="74"/>
    <rect x="118" y="264" width="50" height="50" fill="#ffffff"/>
    <rect x="131" y="277" width="24" height="24"/>
    <rect x="342" y="252" width="74" height="74"/>
    <rect x="354" y="264" width="50" height="50" fill="#ffffff"/>
    <rect x="367" y="277" width="24" height="24"/>
    <rect x="106" y="488" width="74" height="74"/>
    <rect x="118" y="500" width="50" height="50" fill="#ffffff"/>
    <rect x="131" y="513" width="24" height="24"/>
    <path d="M206 252h24v24h-24zM254 252h48v24h-24v24h-24zM326 252h16v48h-16zM194 288h24v24h-24zM230 288h24v48h-24zM290 288h36v24h-18v18h-18zM194 336h48v24h-24v24h-24zM254 336h24v24h-24zM302 336h48v24h-24v24h-24zM374 336h42v18h-18v24h-24zM106 348h48v24h-48zM170 348h24v24h-24zM218 384h24v48h-24zM266 384h18v18h42v24h-60zM350 384h66v24h-24v24h-42zM106 408h24v48h-24zM142 432h48v24h-48zM194 456h36v24h-36zM254 444h72v24h-24v24h-48zM338 456h24v48h-24zM386 456h30v24h-30zM194 504h48v24h-24v34h-24zM254 516h24v46h-24zM290 492h36v36h-36zM338 528h78v34h-24v-18h-54z"/>
  </g>
  <rect x="198" y="364" width="124" height="78" rx="8" fill="#ffffff"/>
  <text x="260" y="397" text-anchor="middle" font-family="Arial, sans-serif" font-size="24" font-weight="900" fill="#27376f">insta</text>
  <text x="260" y="425" text-anchor="middle" font-family="Arial, sans-serif" font-size="24" font-weight="900" fill="#e54588">pay</text>
  <rect x="162" y="590" width="196" height="44" rx="22" fill="#f3f3f3"/>
  <text x="260" y="620" text-anchor="middle" font-family="Arial, sans-serif" font-size="19" fill="#777777">Transfer fees may apply</text>
  <text x="260" y="660" text-anchor="middle" font-family="Arial, sans-serif" font-size="38" font-weight="900" fill="#2bbf66">maya</text>
</svg>
